<svg width="69" height="69" viewBox="0 0 69 69" fill="none" xmlns="http://www.w3.org/2000/svg">
<path d="M34.5 43.125C36.8958 43.125 38.9323 42.2865 40.6094 40.6094C42.2865 38.9323 43.125 36.8958 43.125 34.5C43.125 32.1042 42.2865 30.0677 40.6094 28.3906C38.9323 26.7135 36.8958 25.875 34.5 25.875C32.1042 25.875 30.0677 26.7135 28.3906 28.3906C26.7135 30.0677 25.875 32.1042 25.875 34.5C25.875 36.8958 26.7135 38.9323 28.3906 40.6094C30.0677 42.2865 32.1042 43.125 34.5 43.125ZM34.5 48.875C30.5229 48.875 27.1328 47.4734 24.3297 44.6703C21.5266 41.8672 20.125 38.4771 20.125 34.5C20.125 30.5229 21.5266 27.1328 24.3297 24.3297C27.1328 21.5266 30.5229 20.125 34.5 20.125C38.4771 20.125 41.8672 21.5266 44.6703 24.3297C47.4734 27.1328 48.875 30.5229 48.875 34.5C48.875 38.4771 47.4734 41.8672 44.6703 44.6703C41.8672 47.4734 38.4771 48.875 34.5 48.875ZM14.375 37.375H2.875V31.625H14.375V37.375ZM66.125 37.375H54.625V31.625H66.125V37.375ZM31.625 14.375V2.875H37.375V14.375H31.625ZM31.625 66.125V54.625H37.375V66.125H31.625ZM18.4 22.2812L11.1406 15.3094L15.2375 11.0687L22.1375 18.2562L18.4 22.2812ZM53.7625 57.9312L46.7906 50.6719L50.6 46.7188L57.8594 53.6906L53.7625 57.9312ZM46.7188 18.4L53.6906 11.1406L57.9312 15.2375L50.7437 22.1375L46.7188 18.4ZM11.0687 53.7625L18.3281 46.7906L22.2812 50.6L15.3094 57.8594L11.0687 53.7625Z" fill="white"/>
</svg>
