<svg width="80" height="58" viewBox="0 0 80 58" fill="none" xmlns="http://www.w3.org/2000/svg">
<path d="M40.1848 57.9082C32.1869 57.9082 25.3802 55.101 19.765 49.4866C14.149 43.8722 11.3411 37.0434 11.3411 29.0001V26.0878L4.49995 32.9885L0.603271 29.0579L14.1145 15.4282L27.6258 29.0579L23.7291 32.9885L16.888 26.0878V29.0001C16.888 35.4799 19.1493 40.9855 23.6718 45.5169C28.195 50.0477 33.6993 52.3131 40.1848 52.3131C41.7164 52.3131 43.2464 52.1446 44.7749 51.8076C46.304 51.4701 47.7964 50.9643 49.2521 50.2904L53.4123 54.4868C51.331 55.6151 49.1822 56.4674 46.9659 57.0437C44.749 57.62 42.4887 57.9082 40.1848 57.9082ZM65.8854 42.572L52.3741 28.9423L56.2708 25.0117L63.1119 31.9124V29.0001C63.1119 22.5203 60.8507 17.0148 56.3281 12.4833C51.8049 7.95255 46.3006 5.68715 39.8151 5.68715C38.2835 5.68715 36.7535 5.85562 35.225 6.19257C33.6959 6.53014 32.2035 7.03588 30.7478 7.70978L26.5876 3.51345C28.6689 2.3851 30.8177 1.53278 33.034 0.956487C35.2509 0.380191 37.5113 0.092041 39.8151 0.092041C47.813 0.092041 54.6197 2.89923 60.235 8.51361C65.8509 14.128 68.6588 20.9568 68.6588 29.0001V31.9124L75.5 25.0117L79.3966 28.9423L65.8854 42.572Z" fill="white"/>
</svg>
