<svg width="82" height="82" viewBox="0 0 82 82" fill="none" xmlns="http://www.w3.org/2000/svg">
<path d="M7.6875 67.0325V62.0783C9.25119 61.9906 10.5948 61.6905 11.7183 61.178C12.8418 60.6655 13.9742 60.1268 15.1153 59.562C16.2565 58.9965 17.5147 58.4883 18.8899 58.0373C20.2657 57.5863 21.9413 57.3608 23.9167 57.3608C25.949 57.3608 27.6519 57.6028 29.0254 58.0868C30.3984 58.5708 31.6993 59.1118 32.9281 59.7097C34.157 60.3076 35.3913 60.8629 36.6309 61.3754C37.8706 61.8879 39.327 62.1441 41 62.1441C42.673 62.1441 44.1294 61.8879 45.3691 61.3754C46.6087 60.8629 47.843 60.3076 49.0719 59.7097C50.3007 59.1118 51.6159 58.5708 53.0173 58.0868C54.4192 57.6028 56.1079 57.3608 58.0833 57.3608C60.1157 57.3608 61.8055 57.5863 63.1528 58.0373C64.4995 58.4883 65.7435 58.9965 66.8847 59.562C68.0258 60.1268 69.1667 60.6655 70.3073 61.178C71.4485 61.6905 72.7835 61.9906 74.3125 62.0783V67.0325C72.4333 66.9664 70.8335 66.6772 69.5129 66.1647C68.1924 65.6522 66.9504 65.1135 65.7871 64.5486C64.6243 63.9837 63.4623 63.4701 62.3012 63.0077C61.1407 62.5458 59.7347 62.3149 58.0833 62.3149C56.4889 62.3149 55.0807 62.5569 53.8586 63.041C52.6366 63.525 51.42 64.066 50.2088 64.6639C48.9976 65.2618 47.6767 65.817 46.2463 66.3295C44.8164 66.842 43.0677 67.0983 41 67.0983C38.9323 67.0983 37.1836 66.842 35.7537 66.3295C34.3233 65.817 33.0024 65.2618 31.7912 64.6639C30.58 64.066 29.3776 63.525 28.1841 63.041C26.9905 62.5569 25.5681 62.3149 23.9167 62.3149C22.3222 62.3149 20.9305 62.5458 19.7415 63.0077C18.5519 63.4701 17.3757 63.9837 16.2129 64.5486C15.0496 65.1135 13.8076 65.6522 12.4871 66.1647C11.1665 66.6772 9.56667 66.9664 7.6875 67.0325ZM7.6875 52.8798V47.9256C9.25119 47.838 10.5948 47.5379 11.7183 47.0254C12.8418 46.5129 13.9742 45.9742 15.1153 45.4093C16.2565 44.8438 17.5147 44.3356 18.8899 43.8846C20.2657 43.4336 21.9413 43.2081 23.9167 43.2081C25.949 43.2081 27.6519 43.4501 29.0254 43.9341C30.3984 44.4182 31.6993 44.9591 32.9281 45.557C34.157 46.155 35.3913 46.7102 36.6309 47.2227C37.8706 47.7352 39.327 47.9914 41 47.9914C42.673 47.9914 44.1294 47.7352 45.3691 47.2227C46.6087 46.7102 47.843 46.155 49.0719 45.557C50.3007 44.9591 51.6159 44.4182 53.0173 43.9341C54.4192 43.4501 56.1079 43.2081 58.0833 43.2081C60.1157 43.2081 61.8055 43.4336 63.1528 43.8846C64.4995 44.3356 65.7435 44.8438 66.8847 45.4093C68.0258 45.9742 69.1667 46.5129 70.3073 47.0254C71.4485 47.5379 72.7835 47.838 74.3125 47.9256V52.8798C72.4333 52.8138 70.8335 52.5245 69.5129 52.012C68.1924 51.4995 66.9504 50.9608 65.7871 50.3959C64.6243 49.831 63.4623 49.3174 62.3012 48.855C61.1407 48.3926 59.7347 48.1614 58.0833 48.1614C56.4536 48.1614 55.0277 48.4034 53.8057 48.8874C52.5836 49.3715 51.367 49.9124 50.1558 50.5104C48.9446 51.1083 47.6329 51.6635 46.2207 52.176C44.8079 52.6885 43.0677 52.9447 41 52.9447C38.9323 52.9447 37.1836 52.6885 35.7537 52.176C34.3233 51.6635 33.0024 51.1083 31.7912 50.5104C30.58 49.9124 29.3776 49.3715 28.1841 48.8874C26.9905 48.4034 25.5681 48.1614 23.9167 48.1614C22.3222 48.1614 20.9305 48.3926 19.7415 48.855C18.5519 49.3174 17.3757 49.831 16.2129 50.3959C15.0496 50.9608 13.8076 51.4995 12.4871 52.012C11.1665 52.5245 9.56667 52.8138 7.6875 52.8798ZM7.6875 38.7263V33.773C9.25119 33.6853 10.5948 33.3852 11.7183 32.8727C12.8418 32.3602 13.9742 31.8212 15.1153 31.2557C16.2565 30.6908 17.5147 30.1829 18.8899 29.7319C20.2657 29.2809 21.9413 29.0554 23.9167 29.0554C25.949 29.0554 27.6519 29.2974 29.0254 29.7814C30.3984 30.2655 31.6993 30.8064 32.9281 31.4044C34.157 32.0023 35.3913 32.5575 36.6309 33.07C37.8706 33.5825 39.327 33.8387 41 33.8387C42.673 33.8387 44.1294 33.5825 45.3691 33.07C46.6087 32.5575 47.843 32.0023 49.0719 31.4044C50.3007 30.8064 51.6159 30.2655 53.0173 29.7814C54.4192 29.2974 56.1079 29.0554 58.0833 29.0554C60.1157 29.0554 61.8055 29.2809 63.1528 29.7319C64.4995 30.1829 65.7435 30.6908 66.8847 31.2557C68.0258 31.8212 69.1667 32.3602 70.3073 32.8727C71.4485 33.3852 72.7835 33.6853 74.3125 33.773V38.7263C72.4333 38.6608 70.8335 38.3718 69.5129 37.8593C68.1924 37.3468 66.9504 36.8081 65.7871 36.2432C64.6243 35.6777 63.4623 35.1641 62.3012 34.7023C61.1407 34.2399 59.7347 34.0087 58.0833 34.0087C56.4889 34.0087 55.0807 34.2507 53.8586 34.7348C52.6366 35.2188 51.42 35.7598 50.2088 36.3577C48.9976 36.9556 47.6767 37.5108 46.2463 38.0233C44.8164 38.5358 43.0677 38.792 41 38.792C38.9323 38.792 37.1836 38.5358 35.7537 38.0233C34.3233 37.5108 33.0024 36.9556 31.7912 36.3577C30.58 35.7598 29.3776 35.2188 28.1841 34.7348C26.9905 34.2507 25.5681 34.0087 23.9167 34.0087C22.3222 34.0087 20.9305 34.2399 19.7415 34.7023C18.5519 35.1641 17.3757 35.6777 16.2129 36.2432C15.0496 36.8081 13.8076 37.3468 12.4871 37.8593C11.1665 38.3718 9.56667 38.6608 7.6875 38.7263ZM7.6875 24.5736V19.6194C9.25119 19.5323 10.5948 19.2325 11.7183 18.72C12.8418 18.2075 13.9742 17.6685 15.1153 17.103C16.2565 16.5382 17.5147 16.0302 18.8899 15.5792C20.2657 15.1276 21.9413 14.9019 23.9167 14.9019C25.949 14.9019 27.6519 15.1439 29.0254 15.6279C30.3984 16.1119 31.6993 16.6529 32.9281 17.2508C34.157 17.8487 35.3913 18.4039 36.6309 18.9164C37.8706 19.4289 39.327 19.6852 41 19.6852C42.673 19.6852 44.1294 19.4289 45.3691 18.9164C46.6087 18.4039 47.843 17.8487 49.0719 17.2508C50.3007 16.6529 51.6159 16.1119 53.0173 15.6279C54.4192 15.1439 56.1079 14.9019 58.0833 14.9019C60.1157 14.9019 61.8055 15.1276 63.1528 15.5792C64.4995 16.0302 65.7435 16.5382 66.8847 17.103C68.0258 17.6685 69.1667 18.2075 70.3073 18.72C71.4485 19.2325 72.7835 19.5323 74.3125 19.6194V24.5736C72.4333 24.5081 70.8335 24.2191 69.5129 23.7066C68.1924 23.1941 66.9504 22.6554 65.7871 22.0905C64.6243 21.5251 63.4623 21.0114 62.3012 20.5496C61.1407 20.0872 59.7347 19.856 58.0833 19.856C56.4889 19.856 55.0807 20.098 53.8586 20.5821C52.6366 21.0661 51.42 21.6071 50.2088 22.205C48.9976 22.8029 47.6767 23.3581 46.2463 23.8706C44.8164 24.3831 43.0677 24.6394 41 24.6394C38.9323 24.6394 37.1836 24.3831 35.7537 23.8706C34.3233 23.3581 33.0024 22.8029 31.7912 22.205C30.58 21.6071 29.3776 21.0661 28.1841 20.5821C26.9905 20.098 25.5681 19.856 23.9167 19.856C22.3222 19.856 20.9305 20.0872 19.7415 20.5496C18.5519 21.0114 17.3757 21.5251 16.2129 22.0905C15.0496 22.6554 13.8076 23.1941 12.4871 23.7066C11.1665 24.2191 9.56667 24.5081 7.6875 24.5736Z" fill="white"/>
</svg>
